<svg width="96" height="97" viewBox="0 0 96 97" fill="none" xmlns="http://www.w3.org/2000/svg">
<rect width="95.57" height="97" rx="10" fill="black"/>
<path fill-rule="evenodd" clip-rule="evenodd" d="M66.6579 18.1298H29.017V22.5771H15.9294V43.4376C15.9294 51.4997 24.7646 58.134 33.4347 58.8242C36.2809 61.93 41.2873 64.186 45.743 65.1479V70.6003C41.4821 71.9332 33.8709 75.0649 33.4347 78.4769H62.6765C62.236 75.0649 53.8498 71.9289 49.5804 70.6003V65.1479C54.0531 64.186 59.2839 61.93 62.1344 58.8242C70.8002 58.134 79.2458 51.4997 79.2458 43.4376V22.5771H66.6579V18.1298ZM19.9488 26.5283H28.7121V44.4988C28.7121 48.0445 29.61 51.4178 31.1898 54.4545C24.6333 52.3279 19.9488 46.8497 19.9488 40.4397V26.5283ZM54.2733 48.4457L47.7337 44.7748L41.1856 48.4457L42.4351 40.6812L37.1407 35.1857L44.4554 34.0512L47.7337 26.9942L51.0035 34.0512L58.3182 35.1857L53.0238 40.6812L54.2733 48.4457ZM63.9938 55.0282C65.5821 51.8534 66.4927 48.3422 66.4927 44.6282V26.6448H75.2771V40.3879C75.2771 47.0869 70.5715 52.8067 63.9938 55.0282Z" fill="#F8F8F8"/>
</svg>
