<svg width="25" height="17" viewBox="0 0 25 17" fill="none" xmlns="http://www.w3.org/2000/svg">
<path d="M24.4765 2.61627C24.335 2.11137 24.0593 1.65426 23.6787 1.29353C23.2874 0.921712 22.8078 0.65574 22.2851 0.52072C20.3292 0.0051647 12.4927 0.00516482 12.4927 0.00516482C9.22579 -0.0320045 5.95966 0.131475 2.71278 0.494682C2.19013 0.639676 1.71142 0.911592 1.31922 1.28624C0.933851 1.65703 0.654722 2.11426 0.508908 2.61523C0.158635 4.50221 -0.0115514 6.4182 0.000642813 8.33738C-0.0118555 10.2548 0.157913 12.1702 0.508908 14.0595C0.651597 14.5584 0.929685 15.0136 1.31609 15.3812C1.7025 15.7489 2.18368 16.0145 2.71278 16.1551C4.6948 16.6696 12.4927 16.6696 12.4927 16.6696C15.7638 16.7068 19.0341 16.5433 22.2851 16.1801C22.8078 16.0451 23.2874 15.7791 23.6787 15.4073C24.0641 15.0396 24.338 14.5824 24.4755 14.0845C24.8349 12.1983 25.0097 10.2815 24.9973 8.36133C25.0243 6.43306 24.8498 4.50723 24.4765 2.61523V2.61627ZM10.0014 11.9036V4.77223L16.5213 8.33842L10.0014 11.9036Z" fill="#3D3D3D"/>
</svg>
