<svg width="12" height="18" viewBox="0 0 12 18" fill="none" xmlns="http://www.w3.org/2000/svg">
<path d="M5.99984 0.666504C2.77484 0.666504 0.166504 3.27484 0.166504 6.49984C0.166504 10.8748 5.99984 17.3332 5.99984 17.3332C5.99984 17.3332 11.8332 10.8748 11.8332 6.49984C11.8332 3.27484 9.22484 0.666504 5.99984 0.666504ZM5.99984 8.58317C5.4473 8.58317 4.9174 8.36368 4.5267 7.97298C4.136 7.58228 3.9165 7.05237 3.9165 6.49984C3.9165 5.9473 4.136 5.4174 4.5267 5.0267C4.9174 4.636 5.4473 4.4165 5.99984 4.4165C6.55237 4.4165 7.08228 4.636 7.47298 5.0267C7.86368 5.4174 8.08317 5.9473 8.08317 6.49984C8.08317 7.05237 7.86368 7.58228 7.47298 7.97298C7.08228 8.36368 6.55237 8.58317 5.99984 8.58317Z" fill="black"/>
</svg>
